{
  "accessors": [
    {
      "bufferView": 2,
      "componentType": 5126,
      "count": 1570,
      "max": [
        19.0,
        22.3359432220459,
        18.999996185302734
      ],
      "min": [
        -18.99999237060547,
        0.0,
        -18.99999237060547
      ],
      "type": "VEC3"
    },
    {
      "bufferView": 2,
      "byteOffset": 18840,
      "componentType": 5126,
      "count": 1570,
      "max": [
        1.0,
        1.0,
        1.0
      ],
      "min": [
        -1.0,
        -1.0,
        -1.0
      ],
      "type": "VEC3"
    },
    {
      "bufferView": 1,
      "componentType": 5126,
      "count": 1570,
      "max": [
        1.0,
        1.0
      ],
      "min": [
        0.0,
        0.0
      ],
      "type": "VEC2"
    },
    {
      "bufferView": 0,
      "componentType": 5125,
      "count": 4506,
      "type": "SCALAR"
    },
    {
      "bufferView": 2,
      "byteOffset": 37680,
      "componentType": 5126,
      "count": 177,
      "max": [
        -9.171537399291992,
        14.771275520324707,
        14.60090446472168
      ],
      "min": [
        -26.217206954956055,
        0.19039344787597656,
        3.6646528244018555
      ],
      "type": "VEC3"
    },
    {
      "bufferView": 2,
      "byteOffset": 39804,
      "componentType": 5126,
      "count": 177,
      "max": [
        0.9914777278900146,
        0.9999372959136963,
        0.983688235282898
      ],
      "min": [
        -0.9907500147819519,
        -0.9953437447547913,
        -0.9839178919792175
      ],
      "type": "VEC3"
    },
    {
      "bufferView": 1,
      "byteOffset": 12560,
      "componentType": 5126,
      "count": 177,
      "max": [
        0.65625,
        0.9923526048660278
      ],
      "min": [
        0.34375,
        0.3125
      ],
      "type": "VEC2"
    },
    {
      "bufferView": 0,
      "byteOffset": 18024,
      "componentType": 5125,
      "count": 864,
      "type": "SCALAR"
    },
    {
      "bufferView": 2,
      "byteOffset": 41928,
      "componentType": 5126,
      "count": 607,
      "max": [
        13.434226036071777,
        34.72602462768555,
        13.434224128723145
      ],
      "min": [
        -13.434222221374512,
        7.857572555541992,
        -13.434221267700195
      ],
      "type": "VEC3"
    },
    {
      "bufferView": 2,
      "byteOffset": 49212,
      "componentType": 5126,
      "count": 607,
      "max": [
        1.0,
        1.0,
        1.0
      ],
      "min": [
        -1.0,
        -1.0,
        -1.0
      ],
      "type": "VEC3"
    },
    {
      "bufferView": 1,
      "byteOffset": 13976,
      "componentType": 5126,
      "count": 607,
      "max": [
        0.9999998211860657,
        1.0
      ],
      "min": [
        0.0,
        0.0
      ],
      "type": "VEC2"
    },
    {
      "bufferView": 0,
      "byteOffset": 21480,
      "componentType": 5125,
      "count": 3192,
      "type": "SCALAR"
    }
  ],
  "asset": {
    "extras": {
      "author": "MooseMannequin (https://sketchfab.com/MooseMannequin)",
      "license": "SKETCHFAB Standard (https://sketchfab.com/licenses)",
      "source": "https://sketchfab.com/3d-models/saturn-desk-lamp-861fc2fffbb84622ad5127a806b975ae",
      "title": "Saturn Desk Lamp"
    },
    "generator": "Sketchfab-16.59.0",
    "version": "2.0"
  },
  "bufferViews": [
    {
      "buffer": 0,
      "byteLength": 34248,
      "name": "floatBufferViews",
      "target": 34963
    },
    {
      "buffer": 0,
      "byteLength": 18832,
      "byteOffset": 34248,
      "byteStride": 8,
      "name": "floatBufferViews",
      "target": 34962
    },
    {
      "buffer": 0,
      "byteLength": 56496,
      "byteOffset": 53080,
      "byteStride": 12,
      "name": "floatBufferViews",
      "target": 34962
    }
  ],
  "buffers": [
    {
      "byteLength": 109576,
      "uri": "scene.bin"
    }
  ],
  "extensionsUsed": [
    "KHR_materials_specular",
    "KHR_materials_transmission"
  ],
  "materials": [
    {
      "doubleSided": true,
      "extensions": {
        "KHR_materials_specular": {
          "specularColorFactor": [
            1.0,
            1.0,
            1.0
          ],
          "specularFactor": 0.9859077665760504
        }
      },
      "name": "saturnChrome_CLR",
      "pbrMetallicRoughness": {
        "baseColorFactor": [
          0.5,
          0.5,
          0.5,
          1.0
        ],
        "roughnessFactor": 0.010666699174702246
      }
    },
    {
      "doubleSided": true,
      "extensions": {
        "KHR_materials_specular": {
          "specularColorFactor": [
            1.0,
            1.0,
            1.0
          ],
          "specularFactor": 0.6445733929855786
        }
      },
      "name": "saturnCord_CLR",
      "pbrMetallicRoughness": {
        "baseColorFactor": [
          0.006493624808416748,
          0.007149217809741786,
          0.006451621502593654,
          1.0
        ],
        "metallicFactor": 0.0,
        "roughnessFactor": 0.5531445429167022
      }
    },
    {
      "alphaMode": "BLEND",
      "doubleSided": true,
      "emissiveFactor": [
        0.775209617965722,
        0.4307148267922875,
        0.023508915219869173
      ],
      "extensions": {
        "KHR_materials_specular": {
          "specularColorFactor": [
            1.0,
            1.0,
            1.0
          ],
          "specularFactor": 0.9615267398910168
        },
        "KHR_materials_transmission": {
          "transmissionFactor": 0.39809340371323043
        }
      },
      "name": "saturn_CLR",
      "pbrMetallicRoughness": {
        "baseColorFactor": [
          0.5,
          0.5,
          0.5,
          0.6019065962867696
        ],
        "metallicFactor": 0.0,
        "roughnessFactor": 0.0228572125172191
      }
    }
  ],
  "meshes": [
    {
      "name": "saturnTripod_saturnChrome_CLR_0",
      "primitives": [
        {
          "attributes": {
            "NORMAL": 1,
            "POSITION": 0,
            "TEXCOORD_0": 2
          },
          "indices": 3,
          "material": 0,
          "mode": 4
        }
      ]
    },
    {
      "name": "saturnTripod_saturnCord_CLR_0",
      "primitives": [
        {
          "attributes": {
            "NORMAL": 5,
            "POSITION": 4,
            "TEXCOORD_0": 6
          },
          "indices": 7,
          "material": 1,
          "mode": 4
        }
      ]
    },
    {
      "name": "saturnTripod_saturn_CLR_0",
      "primitives": [
        {
          "attributes": {
            "NORMAL": 9,
            "POSITION": 8,
            "TEXCOORD_0": 10
          },
          "indices": 11,
          "material": 2,
          "mode": 4
        }
      ]
    }
  ],
  "nodes": [
    {
      "children": [
        1
      ],
      "matrix": [
        1.0,
        0.0,
        0.0,
        0.0,
        0.0,
        2.220446049250313e-16,
        -1.0,
        0.0,
        0.0,
        1.0,
        2.220446049250313e-16,
        0.0,
        0.0,
        0.0,
        0.0,
        1.0
      ],
      "name": "Sketchfab_model"
    },
    {
      "children": [
        2
      ],
      "matrix": [
        0.009999999776482582,
        0.0,
        0.0,
        0.0,
        0.0,
        0.0,
        0.009999999776482582,
        0.0,
        0.0,
        -0.009999999776482582,
        0.0,
        0.0,
        0.0,
        0.0,
        0.0,
        1.0
      ],
      "name": "0eaf8d2a80ce4ee6a8a1252d050a1758.fbx"
    },
    {
      "children": [
        3
      ],
      "name": "RootNode"
    },
    {
      "children": [
        4,
        5,
        6
      ],
      "name": "saturnTripod"
    },
    {
      "mesh": 0,
      "name": "saturnTripod_saturnChrome_CLR_0"
    },
    {
      "mesh": 1,
      "name": "saturnTripod_saturnCord_CLR_0"
    },
    {
      "mesh": 2,
      "name": "saturnTripod_saturn_CLR_0"
    }
  ],
  "scene": 0,
  "scenes": [
    {
      "name": "Sketchfab_Scene",
      "nodes": [
        0
      ]
    }
  ]
}
